<svg xmlns="http://www.w3.org/2000/svg" width="86" height="126" viewBox="0 0 86 126"><ellipse cx="43" cy="118" rx="27" ry="6" fill="#253d2a" opacity=".3"/><path d="M20 28c4-20 40-23 47-2l-5 17H23z" fill="#5d3d24" stroke="#372315" stroke-width="4"/><path d="M17 27h52l-7-10H25z" fill="#a47a42" stroke="#5d3d24" stroke-width="4"/><circle cx="43" cy="42" r="23" fill="#ffd0a6" stroke="#8a5836" stroke-width="3"/><circle cx="35" cy="43" r="3" fill="#222"/><circle cx="51" cy="43" r="3" fill="#222"/><path d="M37 54q6 4 12 0" fill="none" stroke="#a95d4a" stroke-width="2"/><rect x="18" y="64" width="50" height="39" rx="8" fill="#3f7a49" stroke="#24482c" stroke-width="4"/><rect x="23" y="101" width="17" height="18" rx="4" fill="#6d4930"/><rect x="46" y="101" width="17" height="18" rx="4" fill="#6d4930"/><rect x="21" y="115" width="20" height="8" rx="3" fill="#2e241f"/><rect x="45" y="115" width="20" height="8" rx="3" fill="#2e241f"/></svg>