<svg xmlns="http://www.w3.org/2000/svg" width="80" height="120" viewBox="0 0 80 120"><ellipse cx="40" cy="112" rx="25" ry="6" fill="#253d2a" opacity=".3"/><path d="M19 28c2-18 39-25 44-3l-4 18H22z" fill="#26313c" stroke="#151b20" stroke-width="4"/><circle cx="40" cy="40" r="22" fill="#ffd0a6" stroke="#8a5836" stroke-width="3"/><circle cx="33" cy="41" r="3" fill="#222"/><circle cx="48" cy="41" r="3" fill="#222"/><path d="M34 52q6 5 12 0" fill="none" stroke="#a95d4a" stroke-width="2"/><rect x="19" y="60" width="42" height="36" rx="8" fill="#f8f5e9" stroke="#46535b" stroke-width="4"/><path d="M40 61v34M22 72h36" stroke="#b9c1c3" stroke-width="2"/><rect x="22" y="94" width="16" height="18" rx="4" fill="#7a4f2e"/><rect x="42" y="94" width="16" height="18" rx="4" fill="#7a4f2e"/><rect x="20" y="108" width="19" height="8" rx="3" fill="#2e241f"/><rect x="41" y="108" width="19" height="8" rx="3" fill="#2e241f"/></svg>