<svg xmlns="http://www.w3.org/2000/svg" width="80" height="120" viewBox="0 0 80 120"><ellipse cx="40" cy="112" rx="25" ry="6" fill="#253d2a" opacity=".3"/><path d="M18 29c1-18 39-27 45-4l-2 21H20z" fill="#6b3f31" stroke="#3d251e" stroke-width="4"/><path d="M58 22q10 0 12 9-9 4-15-1" fill="#e67ca4" stroke="#8a3f64" stroke-width="3"/><circle cx="40" cy="40" r="22" fill="#ffd0a6" stroke="#8a5836" stroke-width="3"/><circle cx="33" cy="41" r="3" fill="#222"/><circle cx="48" cy="41" r="3" fill="#222"/><path d="M34 52q6 5 12 0" fill="none" stroke="#a95d4a" stroke-width="2"/><rect x="19" y="60" width="42" height="34" rx="8" fill="#f8f5e9" stroke="#46535b" stroke-width="4"/><path d="M40 62v31M22 72h36" stroke="#b9c1c3" stroke-width="2"/><path d="M19 92h42l-5 20H24z" fill="#253f72" stroke="#17294f" stroke-width="4"/><rect x="20" y="108" width="18" height="8" rx="3" fill="#2e241f"/><rect x="42" y="108" width="18" height="8" rx="3" fill="#2e241f"/></svg>