<svg xmlns="http://www.w3.org/2000/svg" width="420" height="250" viewBox="0 0 420 250"><ellipse cx="210" cy="228" rx="185" ry="18" fill="#315b35" opacity=".28"/><path d="M45 88 95 34h230l50 54" fill="#a7442d" stroke="#56321f" stroke-width="8"/><path d="M62 88h296v126H62z" fill="#f0d3a0" stroke="#56321f" stroke-width="8"/><path d="M150 88V44h120v44" fill="#d9b678" stroke="#56321f" stroke-width="7"/><circle cx="210" cy="62" r="19" fill="#fff1bf" stroke="#56321f" stroke-width="6"/><path d="m210 62 0-10m0 10 9 5" stroke="#56321f" stroke-width="4" stroke-linecap="round"/><g fill="#76b7ca" stroke="#56321f" stroke-width="5"><rect x="88" y="116" width="52" height="48" rx="3"/><rect x="280" y="116" width="52" height="48" rx="3"/></g><g stroke="#fff0bd" stroke-width="3"><path d="M114 118v44M90 140h48M306 118v44M282 140h48"/></g><rect x="174" y="124" width="72" height="90" rx="5" fill="#7b4c2d" stroke="#56321f" stroke-width="7"/><rect x="190" y="140" width="40" height="74" fill="#4b2e1e"/><path d="M62 188h296" stroke="#b58e59" stroke-width="8"/><g fill="#4b8a42"><circle cx="85" cy="205" r="22"/><circle cx="337" cy="205" r="22"/></g><text x="210" y="106" text-anchor="middle" font-family="Tahoma,sans-serif" font-size="22" font-weight="700" fill="#5b341e">โรงเรียนบ้านเหล่าพ่อหา</text></svg>