<svg xmlns="http://www.w3.org/2000/svg" width="144" height="256" viewBox="0 0 144 256"><rect width="144" height="256" fill="none"/><defs><g id="girl"><ellipse cx="24" cy="58" rx="13" ry="4" fill="#203626" opacity=".25"/><circle cx="24" cy="19" r="13" fill="#ffd0a6" stroke="#6f4328" stroke-width="2"/><path d="M10 18Q12 2 25 3Q39 5 38 21L33 14Q25 9 15 14Z" fill="#6d3f31"/><path d="M34 8q8-2 10 5-7 5-11 0" fill="#e57ca3" stroke="#8e4162" stroke-width="1.5"/><circle cx="20" cy="20" r="1.5"/><circle cx="28" cy="20" r="1.5"/><path d="M21 25q3 2 6 0" fill="none" stroke="#a55b49" stroke-width="1.5"/><rect x="13" y="31" width="22" height="19" rx="4" fill="#f7f3df" stroke="#48545b" stroke-width="2"/><path d="M24 32v17M14 40h20" stroke="#b9c2c4"/><path d="M13 48h22l-3 12H16z" fill="#274374" stroke="#182b50" stroke-width="2"/></g></defs><g transform="translate(0 0)"><use href="#girl"/><path d="M15 58h8M27 60h8" stroke="#241d18" stroke-width="4"/></g><g transform="translate(48 0)"><use href="#girl"/><path d="M14 60h9M27 58h9" stroke="#241d18" stroke-width="4"/></g><g transform="translate(96 0)"><use href="#girl"/><path d="M15 58h8M27 60h8" stroke="#241d18" stroke-width="4"/></g><g transform="translate(0 64)"><use href="#girl"/><path d="M13 40h10M25 40h10" stroke="#d6cdb6" stroke-width="3"/><path d="M14 60h9M27 58h9" stroke="#241d18" stroke-width="4"/></g><g transform="translate(48 64)"><use href="#girl"/><path d="M14 40h10M25 40h10" stroke="#d6cdb6" stroke-width="3"/><path d="M15 58h8M27 60h8" stroke="#241d18" stroke-width="4"/></g><g transform="translate(96 64)"><use href="#girl"/><path d="M14 40h10M25 40h10" stroke="#d6cdb6" stroke-width="3"/><path d="M14 60h9M27 58h9" stroke="#241d18" stroke-width="4"/></g><g transform="translate(0 128)"><use href="#girl"/><path d="M14 60h9M27 58h9" stroke="#241d18" stroke-width="4"/></g><g transform="translate(48 128)"><use href="#girl"/><path d="M15 58h8M27 60h8" stroke="#241d18" stroke-width="4"/></g><g transform="translate(96 128)"><use href="#girl"/><path d="M14 60h9M27 58h9" stroke="#241d18" stroke-width="4"/></g><g transform="translate(0 192)"><use href="#girl"/><path d="M14 60h9M27 58h9" stroke="#241d18" stroke-width="4"/></g><g transform="translate(48 192)"><use href="#girl"/><path d="M15 58h8M27 60h8" stroke="#241d18" stroke-width="4"/></g><g transform="translate(96 192)"><use href="#girl"/><path d="M14 60h9M27 58h9" stroke="#241d18" stroke-width="4"/></g></svg>